# xmcd CD database file
#
# Track frame offsets:
#	150
#	23843
#	53470
#	68150
#	96603
#	120326
#	140828
#	171134
#	201943
#	222307
#
# Disc length: 3310 seconds
#
# Revision: 1
# Processed by: cddbd v1.5.2PL0 Copyright (c) Steve Scherf et al.
# Submitted via: CDex 1.70beta2
#
DISCID=920cec0a
DTITLE=Dave Brewer - Life Of Riley
DYEAR=2008
DGENRE=Blues
TTITLE0=Sleeping With The Light On
TTITLE1=Lonely Part Of Town
TTITLE2=The Road Is My Only Home
TTITLE3=Night Walking
TTITLE4=Won't Let Me Ride
TTITLE5=High Times
TTITLE6=Take Me Home
TTITLE7=Call My Name
TTITLE8=Trouble Blues
TTITLE9=Sandtracks
EXTD=YEAR: 2008
EXTT0=
EXTT1=
EXTT2=
EXTT3=
EXTT4=
EXTT5=
EXTT6=
EXTT7=
EXTT8=
EXTT9=
PLAYORDER=
